#!OML:ASF F:\VICON\USERDATA\INSTALL\rory3\rory3.ASF
:FULLY-SPECIFIED
:DEGREES
71
root 1.1086066684703786 17.875602387107637 22.503625964100017 -5.159140274436121 -0.76739598070378 -0.3784557627042582
lfemur -5.1406089059444104 -2.1149902548035513 -24.94412866560312
ltibia 28.96073868745671
lfoot -10.54900098732347 -2.0499856039894606
ltoes -17.53154155609557
rfemur -22.398313628968097 -3.1698719794289714 23.329270606673507
rtibia 72.03300428415292
rfoot -5.762434586401318 -9.048507465609468
rtoes 6.09048679946187
lowerback 11.600150275799523 0.5389358827619786 -0.7630323775496011
upperback 0.08884178551101829 0.7036899549021173 0.8608324535494187
thorax -6.564710001980993 0.3825482460846644 1.333408957681313
lowerneck -15.824479344991973 -3.131226912362912 -1.8981988922468496
upperneck 21.707118061586375 -4.19070730213886 1.4258915388898574
head 9.70238374910664 -1.9609430253444986 0.1309532650851104
lclavicle 2.9851397929887134e-16 5.471902847662027e-17
lhumerus -30.541375068195947 1.17882483131255 80.56868526410334
lradius 32.99847079414505
lwrist 9.043061464198008
lhand -28.982710646035464 20.036901424473108
lfingers 7.125020000000001
lthumb -2.2811955361018104 49.766994481888794
rclavicle 2.983361361311324e-16 5.475930705838246e-17
rhumerus -32.773785025161516 -20.662628558389766 -77.22827812686185
rradius 27.593791362600964
rwrist 4.173295916629623
rhand -17.544908841159693 22.221570044669626
rfingers 7.125020000000001
rthumb 8.777066907516431 -7.687750682346233
72
root 1.0829015084985125 17.875387423369602 23.420513978342136 -4.872317018489884 -0.1459008850471909 -0.26130222460135055
lfemur -3.2913380366414344 -2.409180630955694 -25.173644067887942
ltibia 28.719714644465903
lfoot -10.740027934990486 -2.483667038162308
ltoes -18.374691173753103
rfemur -25.22665176518465 -3.559373227977079 23.65553484918618
rtibia 67.05916805472228
rfoot -7.242939808422616 -9.39571020699385
rtoes 4.771039788284878
lowerback 11.833008854622658 0.08940871127647072 -1.3249508997818287
upperback 0.11411324174292709 0.01718901729139033 1.017606026465534
thorax -6.584713428126663 0.07469881323134972 2.022323424080388
lowerneck -15.81207891885436 -3.1370651386182704 -2.1202386101141815
upperneck 21.686896526442958 -4.1505294624062605 1.5060427720842142
head 9.698029450074229 -1.94161308690712 0.1913222500834562
lclavicle 2.9742004517828444e-16 5.415365880360265e-17
lhumerus -30.353754581034188 1.2794897647811112 80.60943261173901
lradius 32.98442081972443
lwrist 8.77624747704796
lhand -28.824273027088577 20.347802112855447
lfingers 7.125020000000001
lthumb -2.094276865635851 50.11595548704729
rclavicle 2.98633632476846e-16 5.497358714178439e-17
rhumerus -33.158549366809865 -20.50818138023203 -77.02414796821681
rradius 27.355162887660647
rwrist 4.042250209751645
rhand -17.599304035979262 22.22737359194898
rfingers 7.125020000000001
rthumb 8.80017260736686 -7.545341351736919
73
root 1.053772899317633 17.868935729067573 24.110771039311793 -4.648744895363597 0.522411795315609 0.06469481339339778
lfemur -0.8207149774350819 -2.434169990448095 -25.510363404271637
ltibia 27.454168972206627
lfoot -9.566842247522263 -2.592950046671077
ltoes -19.368442439181898
rfemur -27.20971230084951 -3.3206814876576827 23.503570655094634
rtibia 59.403400749098545
rfoot -7.386398070664438 -10.492206902150304
rtoes 4.317560382321099
lowerback 11.932495970623071 -0.30206162265030556 -1.9666576789053944
upperback 0.15766143655829734 -0.5979778152718671 1.1214687824898906
thorax -6.512962244471085 -0.20328593019692773 2.657424285109295
lowerneck -15.885518413919034 -3.1826966799679597 -2.328965296155887
upperneck 21.55891552423869 -4.193487105109869 1.6931924760974848
head 9.666657873785871 -1.948914888226824 0.27431237179846896
lclavicle 3.0035231519013305e-16 5.598534547479079e-17
lhumerus -30.34712505994837 1.2311227478340152 80.61018041069973
lradius 32.9834610234696
lwrist 8.787628554119404
lhand -28.756404158834485 20.219176380827232
lfingers 7.125020000000001
lthumb -2.0461360577363 49.95805322234444
rclavicle 2.9880808599808774e-16 5.5099268510480327e-17
rhumerus -33.455502832940425 -20.347078461695094 -76.81619930530879
rradius 27.124289731200594
rwrist 3.992790907727183
rhand -17.6816995645788 22.11331357668767
rfingers 7.125020000000001
rthumb 8.777034125586134 -7.507549061676914
74
root 1.0253520821516289 17.8504620391068 24.949259899911823 -3.894354928923202 0.8706602771951638 0.821251639875781
lfemur 2.2122843827827525 -2.32690221669431 -26.17792728875066
ltibia 25.019707296551733
lfoot -10.698323192552232 -2.8041415208577294
ltoes -22.20030467529758
rfemur -28.233769925008353 -2.2572162108981226 22.425124086837293
rtibia 49.22800786134659
rfoot -6.111504805608799 -11.996914907921841
rtoes 4.011034555572278
lowerback 11.619053422192032 -0.5022028989819441 -2.82498043131357
upperback 0.20241815156328125 -0.9574628913845369 1.1531391718514936
thorax -6.338875324651746 -0.3617609768131007 3.1646635033489146
lowerneck -15.982076910909207 -3.231533567075776 -2.4774189055313176
upperneck 21.40597437956835 -4.262164855473663 1.9081970399266266
head 9.624587829387377 -1.963263481549514 0.36061184266102986
lclavicle 2.98488916702556e-16 5.4972430902736936e-17
lhumerus -30.69189580388799 0.9743173344620528 80.50603070557835
lradius 33.14279745298768
lwrist 9.28128968150814
lhand -28.78734718459838 19.74489738220413
lfingers 7.125020000000001
lthumb -2.1351491496587256 49.38686025967188
rclavicle 2.9919731991201736e-16 5.5378721894922715e-17
rhumerus -33.61368177063706 -20.327919172759817 -76.54179350613238
rradius 26.73692706062083
rwrist 4.142870545284064
rhand -17.71768118028352 22.088070320176083
rfingers 7.125020000000001
rthumb 8.752704051503887 -7.517355846573471
75
root 0.9766345487148103 17.808946460046943 25.74572858373226 -3.1657626829714016 1.482929960740881 0.8852038437727319
lfemur 5.517467151620626 -2.4596671728867605 -26.011503046637063
ltibia 21.981236095676984
lfoot -8.962058568519911 -3.07945454899848
ltoes -23.578653797786643
rfemur -28.025707333075953 0.08453236719181279 21.439947159390606
rtibia 36.96387964443824
rfoot -4.679999784888593 -13.73268994534655
rtoes 2.8092726436503566
lowerback 11.208667454573895 -0.7716038622463249 -3.317473573270939
upperback 0.07673982305852314 -1.3675732788102437 1.1997119873597808
thorax -6.209020604162887 -0.546678891867997 3.648437558819702
lowerneck -16.085383141544487 -3.267787976521333 -2.5679005819617435
upperneck 21.34388141732474 -4.320603964159558 2.099353032299703
head 9.605940026156787 -1.9748490061721735 0.4391162826429841
lclavicle 2.9751119929693187e-16 5.4409275626390996e-17
lhumerus -30.961678152247288 1.1077635948012006 80.28045821786652
lradius 33.24484811543344
lwrist 10.284726905851585
lhand -28.96503303913576 19.032100849418132
lfingers 7.125020000000001
lthumb -2.3749041279541534 48.623558035227
rclavicle 2.9961607261193635e-16 5.567967126540873e-17
rhumerus -33.67116129352998 -20.447213119817196 -76.08083586281104
rradius 26.088836720501284
rwrist 4.630447475998878
rhand -17.70703187300824 22.259299220290526
rfingers 7.125020000000001
rthumb 8.738213375001745 -7.472445793031332
76
root 0.9130480192657584 17.736796093966618 26.68907089023161 -2.7302612449574304 2.4091267099399576 1.0928732722846966
lfemur 8.848815691759729 -2.8182841251741406 -25.851508434148027
ltibia 19.254203425431886
lfoot -9.234122298517645 -3.605306166611845
ltoes -25.903092808246075
rfemur -27.274901669645335 3.6584985724601893 19.574403503608558
rtibia 25.294353000173217
rfoot -4.601136045308396 -15.500595484385364
rtoes 0.13691540776511113
lowerback 10.921264349837488 -1.1277462699384269 -3.952479172150144
upperback -0.04918862327848684 -1.885689659964905 1.2380515521934818
thorax -6.004888577890655 -0.7785177321544183 4.166168035049691
lowerneck -16.213106033954 -3.3050687622799693 -2.6429419540695545
upperneck 21.389490104516927 -4.378403571359586 2.29186235865944
head 9.62201612719176 -1.9877938103596282 0.5211581067127223
lclavicle 3.00495426922853e-16 5.619976081048454e-17
lhumerus -31.132282708550946 1.6141562647293086 80.01842493156364
lradius 33.145530071770615
lwrist 11.39900048156173
lhand -29.298217112130448 18.247916771869033
lfingers 7.125020000000001
lthumb -2.7698458636997305 47.760919768163205
rclavicle 3.0025870226046737e-16 5.614140731321237e-17
rhumerus -33.68074392821876 -20.52407003117326 -75.6209192947667
rradius 25.447896080246416
rwrist 5.263030616008532
rhand -17.705254701026895 22.51332617441637
rfingers 7.125020000000001
rthumb 8.707529905318191 -7.37156827243812
77
root 0.8340051227261102 17.620119083776643 27.59870057842122 -2.436427378959321 2.5715992137179517 0.6990458359743705
lfemur 11.155705892590621 -3.7948186913656863 -25.16041892843711
ltibia 18.9944532865534
lfoot -9.368922527755183 -4.439656280202718
ltoes -26.653587751555182
rfemur -26.856677839872294 5.340380799715916 19.497395834133787
rtibia 18.472435078139576
rfoot -5.43642728911202 -15.534097471559123
rtoes -2.604859878574101
lowerback 10.97186632628608 -1.299298737013212 -3.6928473228617014
upperback -0.16570065927640848 -2.073840579971634 1.4281255542425415
thorax -5.894085210237673 -0.8741123952259675 4.461270426466506
lowerneck -16.366611854425383 -3.3459365521103672 -2.7082084809520928
upperneck 21.468630956300714 -4.439633960603477 2.4762765240151605
head 9.657371240419925 -2.004373312033732 0.6044378813269249
lclavicle 2.999425731878577e-16 5.601245507605282e-17
lhumerus -31.271905295697074 2.2083972192367582 79.82017158399222
lradius 32.90267190806216
lwrist 12.21520890371495
lhand -29.71466415844334 17.56948210724939
lfingers 7.125020000000001
lthumb -3.1952995717926718 47.027143042486074
rclavicle 3.003694870374003e-16 5.622087327461612e-17
rhumerus -33.76989568879355 -20.70835545155555 -75.17005624790055
rradius 24.872397196786515
rwrist 5.835044559884467
rhand -17.736874891783533 22.693061737835656
rfingers 7.125020000000001
rthumb 8.647989212199901 -7.271336403070694
